<?xml version="1.0" encoding="utf-8"?><svg xmlns="http://www.w3.org/2000/svg"><symbol viewBox="0 0 24 24" id="accessibility"><path d="M2 16L2.8 14M6 16L5.2 14M5.2 14L4 11L2.8 14M5.2 14H2.8"/><path d="M20 13L22 10M20 13L18 10M20 13L20 16"/><path d="M8 12L10 10V16"/><path d="M13 12L15 10V16"/></symbol><symbol viewBox="0 0 24 24" id="accessibility-human"><circle cx="12" cy="3" r="1"/><path d="M16 21L12 13M12 13V7M12 13L8 21M12 7L18 9M12 7L6 9"/></symbol><symbol viewBox="0 0 24 24" id="activity"><polyline points="21 14 18 14 15 7 10 17 7 11 5 14 3 14"/></symbol><symbol viewBox="0 0 24 24" id="add"><path d="M17 12L7 12M12 17L12 7"/><circle cx="12" cy="12" r="10"/></symbol></svg>